M48
; DRILL file {KiCad 7.0.10} date Sat Aug 30 15:35:13 2025
; FORMAT={-:-/ absolute / metric / decimal}
; #@! TF.CreationDate,2025-08-30T15:35:13+01:00
; #@! TF.GenerationSoftware,Kicad,Pcbnew,7.0.10
; #@! TF.FileFunction,Plated,1,2,PTH
FMAT,2
METRIC
; #@! TA.AperFunction,Plated,PTH,ViaDrill
T1C0.400
; #@! TA.AperFunction,Plated,PTH,ComponentDrill
T2C0.700
; #@! TA.AperFunction,Plated,PTH,ComponentDrill
T3C0.750
; #@! TA.AperFunction,Plated,PTH,ComponentDrill
T4C0.800
; #@! TA.AperFunction,Plated,PTH,ComponentDrill
T5C1.000
%
G90
G05
T1
X117.043Y-110.541
X118.135Y-108.458
X122.555Y-88.9
X122.555Y-107.733
X123.825Y-90.17
T2
X77.47Y-105.41
X77.47Y-113.03
X77.47Y-127.0
X77.47Y-134.62
X80.01Y-105.41
X80.01Y-113.03
X80.01Y-127.0
X80.01Y-134.62
X82.55Y-92.71
X82.55Y-95.25
X82.55Y-102.87
X82.55Y-105.41
X82.55Y-113.03
X85.09Y-95.25
X85.09Y-102.87
X86.36Y-127.0
X86.36Y-134.62
X87.63Y-95.25
X87.63Y-102.87
X87.63Y-105.41
X87.63Y-113.03
X88.265Y-79.97
X88.265Y-87.59
X88.9Y-127.0
X88.9Y-134.62
X90.17Y-92.71
X90.17Y-95.25
X90.17Y-102.87
X90.17Y-105.41
X90.17Y-113.03
X91.44Y-69.175
X91.44Y-76.795
X91.44Y-127.0
X91.44Y-134.62
X92.71Y-92.71
X92.71Y-100.33
X92.71Y-102.87
X92.71Y-105.41
X92.71Y-113.03
X93.98Y-69.175
X93.98Y-76.795
X93.98Y-127.0
X93.98Y-134.62
X95.25Y-105.41
X95.25Y-113.03
X96.52Y-69.175
X96.52Y-76.795
X97.79Y-105.41
X97.79Y-113.03
X99.06Y-69.175
X99.06Y-76.795
X100.33Y-92.71
X100.33Y-100.33
X100.33Y-102.87
X100.33Y-105.41
X100.33Y-113.03
X101.727Y-69.175
X101.727Y-76.795
X102.235Y-137.795
X102.87Y-95.25
X102.87Y-102.87
X102.87Y-105.41
X102.87Y-113.03
X105.41Y-95.25
X105.41Y-102.87
X107.95Y-95.25
X107.95Y-102.87
X107.95Y-105.41
X107.95Y-113.03
X107.95Y-127.0
X107.95Y-134.62
X109.22Y-71.755
X109.22Y-79.375
X109.855Y-137.795
X110.49Y-95.25
X110.49Y-102.87
X110.49Y-105.41
X110.49Y-113.03
X111.76Y-71.755
X111.76Y-79.375
X113.03Y-95.25
X113.03Y-102.87
X113.03Y-105.41
X113.03Y-113.03
X116.205Y-85.09
X116.205Y-92.71
X118.705Y-95.25
X118.745Y-68.58
X118.745Y-71.12
X118.745Y-85.09
X118.745Y-87.63
X118.745Y-90.17
X118.745Y-104.14
X126.325Y-95.25
X126.365Y-68.58
X126.365Y-71.12
X126.365Y-85.09
X126.365Y-87.63
X126.365Y-90.17
X126.365Y-104.14
X128.865Y-68.707
X128.865Y-71.12
X128.865Y-95.25
X128.905Y-104.14
X131.445Y-87.63
X131.445Y-90.17
X136.485Y-68.707
X136.485Y-71.12
X136.485Y-95.25
X136.525Y-104.14
X139.065Y-87.63
X139.065Y-90.17
X139.065Y-99.695
X139.065Y-107.315
X139.7Y-77.47
X139.7Y-85.09
X142.21Y-114.24
X142.24Y-96.52
X142.24Y-99.695
X142.24Y-107.315
X149.86Y-96.52
X149.86Y-117.475
X149.86Y-125.095
T3
X140.716Y-121.539
X141.986Y-122.809
X143.256Y-121.539
X146.05Y-99.695
X146.05Y-102.235
X146.05Y-105.41
X146.05Y-107.95
X147.32Y-100.965
X147.32Y-106.68
T4
X77.47Y-116.205
X77.47Y-123.825
X80.01Y-116.205
X80.01Y-123.825
X82.55Y-116.205
X82.55Y-123.825
X83.82Y-127.04
X83.82Y-132.04
X85.09Y-108.03
X85.09Y-113.03
X85.09Y-116.205
X85.09Y-123.825
X87.63Y-116.205
X87.63Y-123.825
X90.17Y-116.205
X90.17Y-123.825
X91.44Y-79.97
X91.44Y-87.59
X92.71Y-116.205
X92.71Y-123.825
X93.98Y-79.97
X93.98Y-87.59
X96.52Y-79.97
X96.52Y-87.59
X97.79Y-116.205
X97.79Y-123.825
X99.06Y-79.97
X99.06Y-87.59
X100.33Y-116.205
X100.33Y-123.825
X100.965Y-128.27
X100.965Y-130.81
X100.965Y-133.35
X102.235Y-82.59
X102.235Y-87.59
X102.87Y-116.205
X102.87Y-123.825
X105.41Y-107.95
X105.41Y-112.95
X105.41Y-116.205
X105.41Y-123.825
X105.41Y-127.0
X105.41Y-132.0
X107.95Y-116.205
X107.95Y-123.825
X110.49Y-116.205
X110.49Y-123.825
X113.03Y-116.205
X113.03Y-123.825
X113.03Y-128.27
X113.03Y-130.81
X113.03Y-133.35
X113.03Y-137.795
X116.205Y-68.58
X116.205Y-73.58
X118.785Y-92.71
X120.65Y-127.635
X120.65Y-130.135
X120.65Y-137.795
X121.285Y-74.295
X121.285Y-81.915
X121.285Y-106.68
X121.285Y-109.855
X121.285Y-117.475
X123.785Y-92.71
X123.825Y-74.295
X123.825Y-81.915
X123.825Y-109.855
X123.825Y-117.475
X123.825Y-120.523
X123.825Y-125.523
X126.285Y-106.68
X126.325Y-92.71
X126.365Y-74.295
X126.365Y-81.915
X126.365Y-109.855
X126.365Y-117.475
X126.365Y-120.523
X126.365Y-125.523
X128.858Y-106.68
X128.905Y-74.295
X128.905Y-81.915
X128.905Y-85.09
X128.905Y-90.09
X128.905Y-109.855
X128.905Y-117.475
X131.325Y-92.71
X131.445Y-74.295
X131.445Y-81.915
X131.445Y-85.09
X131.445Y-109.855
X131.445Y-117.475
X131.445Y-120.563
X131.445Y-125.563
X133.858Y-106.68
X133.985Y-74.295
X133.985Y-81.915
X133.985Y-109.855
X133.985Y-117.475
X136.144Y-121.031
X136.144Y-123.531
X136.445Y-85.09
X136.525Y-74.295
X136.525Y-81.915
X136.525Y-109.855
X136.525Y-117.475
X139.065Y-109.855
X139.065Y-117.475
X142.24Y-117.475
X144.78Y-130.81
X144.78Y-138.43
X146.304Y-120.69
X146.304Y-125.69
X147.24Y-117.475
X149.225Y-128.945
X149.225Y-131.445
T5
X78.74Y-93.345
X78.74Y-95.885
X78.74Y-98.425
X78.74Y-100.965
X88.9Y-137.795
X91.44Y-137.795
X93.98Y-137.795
X95.895Y-92.075
X95.895Y-94.615
X95.895Y-97.155
X95.895Y-99.695
X96.52Y-137.795
X99.06Y-137.795
X105.41Y-92.075
X106.045Y-69.215
X106.045Y-71.755
X106.045Y-74.295
X106.045Y-76.835
X106.045Y-79.375
X106.045Y-81.915
X107.95Y-92.075
X118.745Y-98.425
X120.396Y-121.28
X120.396Y-123.82
X121.285Y-98.425
X123.825Y-98.425
X126.365Y-98.425
X127.635Y-134.62
X127.635Y-137.16
X128.905Y-98.425
X130.175Y-134.62
X130.175Y-137.16
X131.445Y-98.425
X132.715Y-134.62
X132.715Y-137.16
X133.985Y-98.425
X135.255Y-134.62
X135.255Y-137.16
X137.795Y-134.62
X137.795Y-137.16
X147.32Y-114.24
X149.86Y-114.24
M30
