%TF.GenerationSoftware,KiCad,Pcbnew,7.0.10*%
%TF.CreationDate,2025-08-30T15:35:21+01:00*%
%TF.ProjectId,VC_ADSR_D80-R,56435f41-4453-4525-9f44-38302d522e6b,rev?*%
%TF.SameCoordinates,Original*%
%TF.FileFunction,Soldermask,Bot*%
%TF.FilePolarity,Negative*%
%FSLAX46Y46*%
G04 Gerber Fmt 4.6, Leading zero omitted, Abs format (unit mm)*
G04 Created by KiCad (PCBNEW 7.0.10) date 2025-08-30 15:35:21*
%MOMM*%
%LPD*%
G01*
G04 APERTURE LIST*
G04 Aperture macros list*
%AMRoundRect*
0 Rectangle with rounded corners*
0 $1 Rounding radius*
0 $2 $3 $4 $5 $6 $7 $8 $9 X,Y pos of 4 corners*
0 Add a 4 corners polygon primitive as box body*
4,1,4,$2,$3,$4,$5,$6,$7,$8,$9,$2,$3,0*
0 Add four circle primitives for the rounded corners*
1,1,$1+$1,$2,$3*
1,1,$1+$1,$4,$5*
1,1,$1+$1,$6,$7*
1,1,$1+$1,$8,$9*
0 Add four rect primitives between the rounded corners*
20,1,$1+$1,$2,$3,$4,$5,0*
20,1,$1+$1,$4,$5,$6,$7,0*
20,1,$1+$1,$6,$7,$8,$9,0*
20,1,$1+$1,$8,$9,$2,$3,0*%
G04 Aperture macros list end*
%ADD10C,1.400000*%
%ADD11O,1.400000X1.400000*%
%ADD12C,1.600000*%
%ADD13O,1.600000X1.600000*%
%ADD14R,1.400000X1.400000*%
%ADD15R,1.700000X1.700000*%
%ADD16O,1.700000X1.700000*%
%ADD17C,3.200000*%
%ADD18R,1.600000X1.600000*%
%ADD19R,1.100000X1.800000*%
%ADD20RoundRect,0.275000X0.275000X0.625000X-0.275000X0.625000X-0.275000X-0.625000X0.275000X-0.625000X0*%
%ADD21R,1.800000X1.100000*%
%ADD22RoundRect,0.275000X-0.625000X0.275000X-0.625000X-0.275000X0.625000X-0.275000X0.625000X0.275000X0*%
%ADD23C,1.440000*%
G04 APERTURE END LIST*
D10*
%TO.C,R44*%
X149860000Y-125095000D03*
D11*
X149860000Y-117475000D03*
%TD*%
D12*
%TO.C,C17*%
X102235000Y-87590000D03*
X102235000Y-82590000D03*
%TD*%
D10*
%TO.C,R27*%
X136485000Y-95250000D03*
D11*
X128865000Y-95250000D03*
%TD*%
D12*
%TO.C,FB2*%
X144780000Y-130810000D03*
D13*
X144780000Y-138430000D03*
%TD*%
D14*
%TO.C,D3*%
X110490000Y-113030000D03*
D10*
X110490000Y-105410000D03*
%TD*%
D14*
%TO.C,D7*%
X100330000Y-100330000D03*
D10*
X100330000Y-92710000D03*
%TD*%
%TO.C,R8*%
X85090000Y-102870000D03*
D11*
X85090000Y-95250000D03*
%TD*%
D15*
%TO.C,J6*%
X106045000Y-69215000D03*
D16*
X106045000Y-71755000D03*
X106045000Y-74295000D03*
X106045000Y-76835000D03*
X106045000Y-79375000D03*
X106045000Y-81915000D03*
%TD*%
D17*
%TO.C,REF\u002A\u002A*%
X148590000Y-71755000D03*
%TD*%
D15*
%TO.C,J3*%
X105410000Y-92075000D03*
D16*
X107950000Y-92075000D03*
%TD*%
D12*
%TO.C,C12*%
X128905000Y-85090000D03*
X128905000Y-90090000D03*
%TD*%
%TO.C,C6*%
X116205000Y-68580000D03*
X116205000Y-73580000D03*
%TD*%
D18*
%TO.C,U4*%
X99060000Y-79970000D03*
D13*
X96520000Y-79970000D03*
X93980000Y-79970000D03*
X91440000Y-79970000D03*
X91440000Y-87590000D03*
X93980000Y-87590000D03*
X96520000Y-87590000D03*
X99060000Y-87590000D03*
%TD*%
D15*
%TO.C,J7*%
X149860000Y-114240000D03*
D16*
X147320000Y-114240000D03*
D11*
X142210000Y-114240000D03*
%TD*%
D12*
%TO.C,C15*%
X105410000Y-112950000D03*
X105410000Y-107950000D03*
%TD*%
D18*
%TO.C,U1*%
X92710000Y-116205000D03*
D13*
X90170000Y-116205000D03*
X87630000Y-116205000D03*
X85090000Y-116205000D03*
X82550000Y-116205000D03*
X80010000Y-116205000D03*
X77470000Y-116205000D03*
X77470000Y-123825000D03*
X80010000Y-123825000D03*
X82550000Y-123825000D03*
X85090000Y-123825000D03*
X87630000Y-123825000D03*
X90170000Y-123825000D03*
X92710000Y-123825000D03*
%TD*%
D10*
%TO.C,R21*%
X116205000Y-85090000D03*
D11*
X116205000Y-92710000D03*
%TD*%
D12*
%TO.C,C16*%
X105410000Y-127000000D03*
X105410000Y-132000000D03*
%TD*%
D10*
%TO.C,R6*%
X105410000Y-95250000D03*
D11*
X105410000Y-102870000D03*
%TD*%
D12*
%TO.C,C2*%
X131445000Y-125563000D03*
X131445000Y-120563000D03*
%TD*%
D10*
%TO.C,R40*%
X139065000Y-107315000D03*
D11*
X139065000Y-99695000D03*
%TD*%
D10*
%TO.C,R30*%
X142240000Y-96520000D03*
D11*
X149860000Y-96520000D03*
%TD*%
D10*
%TO.C,R41*%
X126365000Y-68580000D03*
D11*
X118745000Y-68580000D03*
%TD*%
D10*
%TO.C,R19*%
X113030000Y-95250000D03*
D11*
X113030000Y-102870000D03*
%TD*%
D14*
%TO.C,D11*%
X86360000Y-134620000D03*
D10*
X86360000Y-127000000D03*
%TD*%
%TO.C,R29*%
X88900000Y-127000000D03*
D11*
X88900000Y-134620000D03*
%TD*%
D14*
%TO.C,D2*%
X90170000Y-113030000D03*
D10*
X90170000Y-105410000D03*
%TD*%
D12*
%TO.C,C1*%
X123785000Y-92710000D03*
X118785000Y-92710000D03*
%TD*%
%TO.C,C3*%
X121285000Y-106680000D03*
X126285000Y-106680000D03*
%TD*%
%TO.C,C9*%
X123825000Y-120523000D03*
X123825000Y-125523000D03*
%TD*%
D10*
%TO.C,R28*%
X126365000Y-87630000D03*
D11*
X118745000Y-87630000D03*
%TD*%
D10*
%TO.C,R53*%
X88265000Y-79970000D03*
D11*
X88265000Y-87590000D03*
%TD*%
D18*
%TO.C,U2*%
X113030000Y-116205000D03*
D13*
X110490000Y-116205000D03*
X107950000Y-116205000D03*
X105410000Y-116205000D03*
X102870000Y-116205000D03*
X100330000Y-116205000D03*
X97790000Y-116205000D03*
X97790000Y-123825000D03*
X100330000Y-123825000D03*
X102870000Y-123825000D03*
X105410000Y-123825000D03*
X107950000Y-123825000D03*
X110490000Y-123825000D03*
X113030000Y-123825000D03*
%TD*%
D10*
%TO.C,R25*%
X128905000Y-104140000D03*
D11*
X136525000Y-104140000D03*
%TD*%
D10*
%TO.C,R7*%
X107950000Y-113030000D03*
D11*
X107950000Y-105410000D03*
%TD*%
D14*
%TO.C,D13*%
X107950000Y-134620000D03*
D10*
X107950000Y-127000000D03*
%TD*%
D14*
%TO.C,D1*%
X80010000Y-113030000D03*
D10*
X80010000Y-105410000D03*
%TD*%
%TO.C,R4*%
X87630000Y-113030000D03*
D11*
X87630000Y-105410000D03*
%TD*%
D10*
%TO.C,R45*%
X109855000Y-137795000D03*
D11*
X102235000Y-137795000D03*
%TD*%
D14*
%TO.C,D8*%
X126325000Y-95250000D03*
D10*
X118705000Y-95250000D03*
%TD*%
D14*
%TO.C,D4*%
X77470000Y-113030000D03*
D10*
X77470000Y-105410000D03*
%TD*%
%TO.C,R23*%
X126365000Y-90170000D03*
D11*
X118745000Y-90170000D03*
%TD*%
D10*
%TO.C,R34*%
X91440000Y-127000000D03*
D11*
X91440000Y-134620000D03*
%TD*%
D12*
%TO.C,FB1*%
X113030000Y-137795000D03*
D13*
X120650000Y-137795000D03*
%TD*%
D10*
%TO.C,R18*%
X102870000Y-95250000D03*
D11*
X102870000Y-102870000D03*
%TD*%
D14*
%TO.C,D12*%
X93980000Y-134620000D03*
D10*
X93980000Y-127000000D03*
%TD*%
D14*
%TO.C,D9*%
X99060000Y-69175000D03*
D10*
X99060000Y-76795000D03*
%TD*%
D12*
%TO.C,C5*%
X131445000Y-85090000D03*
X136445000Y-85090000D03*
%TD*%
D10*
%TO.C,R16*%
X107950000Y-95250000D03*
D11*
X107950000Y-102870000D03*
%TD*%
D10*
%TO.C,R54*%
X101727000Y-69175000D03*
D11*
X101727000Y-76795000D03*
%TD*%
D15*
%TO.C,J4*%
X118745000Y-98425000D03*
D16*
X121285000Y-98425000D03*
X123825000Y-98425000D03*
X126365000Y-98425000D03*
X128905000Y-98425000D03*
X131445000Y-98425000D03*
X133985000Y-98425000D03*
%TD*%
D10*
%TO.C,R31*%
X118745000Y-104140000D03*
D11*
X126365000Y-104140000D03*
%TD*%
D15*
%TO.C,J1*%
X78740000Y-93345000D03*
D16*
X78740000Y-95885000D03*
X78740000Y-98425000D03*
X78740000Y-100965000D03*
%TD*%
D19*
%TO.C,U6*%
X143256000Y-121139000D03*
D20*
X141986000Y-123209000D03*
X140716000Y-121139000D03*
%TD*%
D14*
%TO.C,D6*%
X113030000Y-113030000D03*
D10*
X113030000Y-105410000D03*
%TD*%
D17*
%TO.C,REF\u002A\u002A*%
X80645000Y-71755000D03*
%TD*%
D10*
%TO.C,R33*%
X139700000Y-77470000D03*
D11*
X139700000Y-85090000D03*
%TD*%
D12*
%TO.C,C11*%
X83820000Y-127040000D03*
X83820000Y-132040000D03*
%TD*%
D10*
%TO.C,R36*%
X109220000Y-79375000D03*
D11*
X109220000Y-71755000D03*
%TD*%
D21*
%TO.C,Q1*%
X145650000Y-99695000D03*
D22*
X147720000Y-100965000D03*
X145650000Y-102235000D03*
%TD*%
D12*
%TO.C,C20*%
X133858000Y-106680000D03*
X128858000Y-106680000D03*
%TD*%
D18*
%TO.C,U3*%
X121285000Y-81915000D03*
D13*
X123825000Y-81915000D03*
X126365000Y-81915000D03*
X128905000Y-81915000D03*
X131445000Y-81915000D03*
X133985000Y-81915000D03*
X136525000Y-81915000D03*
X136525000Y-74295000D03*
X133985000Y-74295000D03*
X131445000Y-74295000D03*
X128905000Y-74295000D03*
X126365000Y-74295000D03*
X123825000Y-74295000D03*
X121285000Y-74295000D03*
%TD*%
D10*
%TO.C,R5*%
X100330000Y-105410000D03*
D11*
X100330000Y-113030000D03*
%TD*%
D15*
%TO.C,J5*%
X88900000Y-137795000D03*
D16*
X91440000Y-137795000D03*
X93980000Y-137795000D03*
X96520000Y-137795000D03*
X99060000Y-137795000D03*
%TD*%
D10*
%TO.C,R1*%
X82550000Y-95250000D03*
D11*
X82550000Y-102870000D03*
%TD*%
D10*
%TO.C,R55*%
X96520000Y-69175000D03*
D11*
X96520000Y-76795000D03*
%TD*%
D10*
%TO.C,R9*%
X92710000Y-102870000D03*
D11*
X100330000Y-102870000D03*
%TD*%
D15*
%TO.C,J9*%
X127635000Y-137160000D03*
D16*
X127635000Y-134620000D03*
X130175000Y-137160000D03*
X130175000Y-134620000D03*
X132715000Y-137160000D03*
X132715000Y-134620000D03*
X135255000Y-137160000D03*
X135255000Y-134620000D03*
X137795000Y-137160000D03*
X137795000Y-134620000D03*
%TD*%
D14*
%TO.C,D10*%
X77470000Y-134620000D03*
D10*
X77470000Y-127000000D03*
%TD*%
%TO.C,R56*%
X93980000Y-76795000D03*
D11*
X93980000Y-69175000D03*
%TD*%
D10*
%TO.C,R2*%
X82550000Y-113030000D03*
D11*
X82550000Y-105410000D03*
%TD*%
D10*
%TO.C,R42*%
X136485000Y-71120000D03*
D11*
X128865000Y-71120000D03*
%TD*%
D12*
%TO.C,C18*%
X146304000Y-125690000D03*
X146304000Y-120690000D03*
%TD*%
D14*
%TO.C,D5*%
X92710000Y-113030000D03*
D10*
X92710000Y-105410000D03*
%TD*%
D18*
%TO.C,C14*%
X149225000Y-128945000D03*
D12*
X149225000Y-131445000D03*
%TD*%
D10*
%TO.C,R3*%
X90170000Y-95250000D03*
D11*
X90170000Y-102870000D03*
%TD*%
D10*
%TO.C,R12*%
X92710000Y-92710000D03*
D11*
X92710000Y-100330000D03*
%TD*%
D10*
%TO.C,R39*%
X126365000Y-71120000D03*
D11*
X118745000Y-71120000D03*
%TD*%
D18*
%TO.C,U5*%
X121285000Y-117475000D03*
D13*
X123825000Y-117475000D03*
X126365000Y-117475000D03*
X128905000Y-117475000D03*
X131445000Y-117475000D03*
X133985000Y-117475000D03*
X136525000Y-117475000D03*
X139065000Y-117475000D03*
X139065000Y-109855000D03*
X136525000Y-109855000D03*
X133985000Y-109855000D03*
X131445000Y-109855000D03*
X128905000Y-109855000D03*
X126365000Y-109855000D03*
X123825000Y-109855000D03*
X121285000Y-109855000D03*
%TD*%
D10*
%TO.C,R57*%
X91440000Y-69175000D03*
D11*
X91440000Y-76795000D03*
%TD*%
D10*
%TO.C,R10*%
X110490000Y-102870000D03*
D11*
X110490000Y-95250000D03*
%TD*%
D23*
%TO.C,RV1*%
X113030000Y-128270000D03*
X113030000Y-130810000D03*
X113030000Y-133350000D03*
%TD*%
D12*
%TO.C,C10*%
X85090000Y-113030000D03*
X85090000Y-108030000D03*
%TD*%
D10*
%TO.C,R13*%
X102870000Y-105410000D03*
D11*
X102870000Y-113030000D03*
%TD*%
D15*
%TO.C,J2*%
X95895000Y-92075000D03*
D16*
X95895000Y-94615000D03*
X95895000Y-97155000D03*
X95895000Y-99695000D03*
%TD*%
D12*
%TO.C,C8*%
X126365000Y-125523000D03*
X126365000Y-120523000D03*
%TD*%
%TO.C,C7*%
X142240000Y-117475000D03*
X147240000Y-117475000D03*
%TD*%
D10*
%TO.C,R35*%
X139065000Y-90170000D03*
D11*
X131445000Y-90170000D03*
%TD*%
D10*
%TO.C,R37*%
X142240000Y-107315000D03*
D11*
X142240000Y-99695000D03*
%TD*%
D21*
%TO.C,Q2*%
X145650000Y-105410000D03*
D22*
X147720000Y-106680000D03*
X145650000Y-107950000D03*
%TD*%
D10*
%TO.C,R15*%
X95250000Y-113030000D03*
D11*
X95250000Y-105410000D03*
%TD*%
D10*
%TO.C,R24*%
X80010000Y-127000000D03*
D11*
X80010000Y-134620000D03*
%TD*%
D10*
%TO.C,R32*%
X111760000Y-79375000D03*
D11*
X111760000Y-71755000D03*
%TD*%
D10*
%TO.C,R17*%
X82550000Y-92710000D03*
D11*
X90170000Y-92710000D03*
%TD*%
D23*
%TO.C,RV2*%
X100965000Y-128270000D03*
X100965000Y-130810000D03*
X100965000Y-133350000D03*
%TD*%
D18*
%TO.C,C19*%
X136144000Y-123531000D03*
D12*
X136144000Y-121031000D03*
%TD*%
D18*
%TO.C,C13*%
X120650000Y-127635000D03*
D12*
X120650000Y-130135000D03*
%TD*%
D10*
%TO.C,R22*%
X118745000Y-85090000D03*
D11*
X126365000Y-85090000D03*
%TD*%
D10*
%TO.C,R38*%
X131445000Y-87630000D03*
D11*
X139065000Y-87630000D03*
%TD*%
D12*
%TO.C,C4*%
X126325000Y-92710000D03*
X131325000Y-92710000D03*
%TD*%
D10*
%TO.C,R11*%
X87630000Y-95250000D03*
D11*
X87630000Y-102870000D03*
%TD*%
D10*
%TO.C,R14*%
X97790000Y-105410000D03*
D11*
X97790000Y-113030000D03*
%TD*%
D10*
%TO.C,R43*%
X136485000Y-68707000D03*
D11*
X128865000Y-68707000D03*
%TD*%
D15*
%TO.C,J8*%
X120396000Y-121280000D03*
D16*
X120396000Y-123820000D03*
%TD*%
M02*
