%TF.GenerationSoftware,KiCad,Pcbnew,7.0.10*%
%TF.CreationDate,2025-08-30T15:35:16+01:00*%
%TF.ProjectId,VC_ADSR_D80-R,56435f41-4453-4525-9f44-38302d522e6b,rev?*%
%TF.SameCoordinates,Original*%
%TF.FileFunction,Drillmap*%
%TF.FilePolarity,Positive*%
%FSLAX45Y45*%
G04 Gerber Fmt 4.5, Leading zero omitted, Abs format (unit mm)*
G04 Created by KiCad (PCBNEW 7.0.10) date 2025-08-30 15:35:16*
%MOMM*%
%LPD*%
G01*
G04 APERTURE LIST*
%ADD10C,0.100000*%
%ADD11C,0.200000*%
%ADD12C,0.320000*%
G04 APERTURE END LIST*
D10*
X7429500Y-6604000D02*
X15494000Y-6604000D01*
X15494000Y-14097000D01*
X7429500Y-14097000D01*
X7429500Y-6604000D01*
D11*
D12*
X7904500Y-7015500D02*
X8224500Y-7335500D01*
X8224500Y-7015500D02*
X7904500Y-7335500D01*
X14699000Y-7015500D02*
X15019000Y-7335500D01*
X15019000Y-7015500D02*
X14699000Y-7335500D01*
D11*
X7685277Y-14413484D02*
X7685277Y-14213484D01*
X7685277Y-14213484D02*
X7732896Y-14213484D01*
X7732896Y-14213484D02*
X7761467Y-14223008D01*
X7761467Y-14223008D02*
X7780515Y-14242055D01*
X7780515Y-14242055D02*
X7790039Y-14261103D01*
X7790039Y-14261103D02*
X7799562Y-14299198D01*
X7799562Y-14299198D02*
X7799562Y-14327769D01*
X7799562Y-14327769D02*
X7790039Y-14365865D01*
X7790039Y-14365865D02*
X7780515Y-14384912D01*
X7780515Y-14384912D02*
X7761467Y-14403960D01*
X7761467Y-14403960D02*
X7732896Y-14413484D01*
X7732896Y-14413484D02*
X7685277Y-14413484D01*
X7885277Y-14413484D02*
X7885277Y-14280150D01*
X7885277Y-14318246D02*
X7894801Y-14299198D01*
X7894801Y-14299198D02*
X7904324Y-14289674D01*
X7904324Y-14289674D02*
X7923372Y-14280150D01*
X7923372Y-14280150D02*
X7942420Y-14280150D01*
X8009086Y-14413484D02*
X8009086Y-14280150D01*
X8009086Y-14213484D02*
X7999562Y-14223008D01*
X7999562Y-14223008D02*
X8009086Y-14232531D01*
X8009086Y-14232531D02*
X8018610Y-14223008D01*
X8018610Y-14223008D02*
X8009086Y-14213484D01*
X8009086Y-14213484D02*
X8009086Y-14232531D01*
X8132896Y-14413484D02*
X8113848Y-14403960D01*
X8113848Y-14403960D02*
X8104324Y-14384912D01*
X8104324Y-14384912D02*
X8104324Y-14213484D01*
X8237658Y-14413484D02*
X8218610Y-14403960D01*
X8218610Y-14403960D02*
X8209086Y-14384912D01*
X8209086Y-14384912D02*
X8209086Y-14213484D01*
X8466229Y-14413484D02*
X8466229Y-14213484D01*
X8466229Y-14213484D02*
X8532896Y-14356341D01*
X8532896Y-14356341D02*
X8599563Y-14213484D01*
X8599563Y-14213484D02*
X8599563Y-14413484D01*
X8780515Y-14413484D02*
X8780515Y-14308722D01*
X8780515Y-14308722D02*
X8770991Y-14289674D01*
X8770991Y-14289674D02*
X8751944Y-14280150D01*
X8751944Y-14280150D02*
X8713848Y-14280150D01*
X8713848Y-14280150D02*
X8694801Y-14289674D01*
X8780515Y-14403960D02*
X8761467Y-14413484D01*
X8761467Y-14413484D02*
X8713848Y-14413484D01*
X8713848Y-14413484D02*
X8694801Y-14403960D01*
X8694801Y-14403960D02*
X8685277Y-14384912D01*
X8685277Y-14384912D02*
X8685277Y-14365865D01*
X8685277Y-14365865D02*
X8694801Y-14346817D01*
X8694801Y-14346817D02*
X8713848Y-14337293D01*
X8713848Y-14337293D02*
X8761467Y-14337293D01*
X8761467Y-14337293D02*
X8780515Y-14327769D01*
X8875753Y-14280150D02*
X8875753Y-14480150D01*
X8875753Y-14289674D02*
X8894801Y-14280150D01*
X8894801Y-14280150D02*
X8932896Y-14280150D01*
X8932896Y-14280150D02*
X8951944Y-14289674D01*
X8951944Y-14289674D02*
X8961467Y-14299198D01*
X8961467Y-14299198D02*
X8970991Y-14318246D01*
X8970991Y-14318246D02*
X8970991Y-14375388D01*
X8970991Y-14375388D02*
X8961467Y-14394436D01*
X8961467Y-14394436D02*
X8951944Y-14403960D01*
X8951944Y-14403960D02*
X8932896Y-14413484D01*
X8932896Y-14413484D02*
X8894801Y-14413484D01*
X8894801Y-14413484D02*
X8875753Y-14403960D01*
X9056705Y-14394436D02*
X9066229Y-14403960D01*
X9066229Y-14403960D02*
X9056705Y-14413484D01*
X9056705Y-14413484D02*
X9047182Y-14403960D01*
X9047182Y-14403960D02*
X9056705Y-14394436D01*
X9056705Y-14394436D02*
X9056705Y-14413484D01*
X9056705Y-14289674D02*
X9066229Y-14299198D01*
X9066229Y-14299198D02*
X9056705Y-14308722D01*
X9056705Y-14308722D02*
X9047182Y-14299198D01*
X9047182Y-14299198D02*
X9056705Y-14289674D01*
X9056705Y-14289674D02*
X9056705Y-14308722D01*
X7224500Y-14642000D02*
X7424500Y-14842000D01*
X7424500Y-14642000D02*
X7224500Y-14842000D01*
X7666229Y-14633484D02*
X7790039Y-14633484D01*
X7790039Y-14633484D02*
X7723372Y-14709674D01*
X7723372Y-14709674D02*
X7751943Y-14709674D01*
X7751943Y-14709674D02*
X7770991Y-14719198D01*
X7770991Y-14719198D02*
X7780515Y-14728722D01*
X7780515Y-14728722D02*
X7790039Y-14747769D01*
X7790039Y-14747769D02*
X7790039Y-14795388D01*
X7790039Y-14795388D02*
X7780515Y-14814436D01*
X7780515Y-14814436D02*
X7770991Y-14823960D01*
X7770991Y-14823960D02*
X7751943Y-14833484D01*
X7751943Y-14833484D02*
X7694801Y-14833484D01*
X7694801Y-14833484D02*
X7675753Y-14823960D01*
X7675753Y-14823960D02*
X7666229Y-14814436D01*
X7875753Y-14814436D02*
X7885277Y-14823960D01*
X7885277Y-14823960D02*
X7875753Y-14833484D01*
X7875753Y-14833484D02*
X7866229Y-14823960D01*
X7866229Y-14823960D02*
X7875753Y-14814436D01*
X7875753Y-14814436D02*
X7875753Y-14833484D01*
X7961467Y-14652531D02*
X7970991Y-14643008D01*
X7970991Y-14643008D02*
X7990039Y-14633484D01*
X7990039Y-14633484D02*
X8037658Y-14633484D01*
X8037658Y-14633484D02*
X8056705Y-14643008D01*
X8056705Y-14643008D02*
X8066229Y-14652531D01*
X8066229Y-14652531D02*
X8075753Y-14671579D01*
X8075753Y-14671579D02*
X8075753Y-14690627D01*
X8075753Y-14690627D02*
X8066229Y-14719198D01*
X8066229Y-14719198D02*
X7951943Y-14833484D01*
X7951943Y-14833484D02*
X8075753Y-14833484D01*
X8199562Y-14633484D02*
X8218610Y-14633484D01*
X8218610Y-14633484D02*
X8237658Y-14643008D01*
X8237658Y-14643008D02*
X8247182Y-14652531D01*
X8247182Y-14652531D02*
X8256705Y-14671579D01*
X8256705Y-14671579D02*
X8266229Y-14709674D01*
X8266229Y-14709674D02*
X8266229Y-14757293D01*
X8266229Y-14757293D02*
X8256705Y-14795388D01*
X8256705Y-14795388D02*
X8247182Y-14814436D01*
X8247182Y-14814436D02*
X8237658Y-14823960D01*
X8237658Y-14823960D02*
X8218610Y-14833484D01*
X8218610Y-14833484D02*
X8199562Y-14833484D01*
X8199562Y-14833484D02*
X8180515Y-14823960D01*
X8180515Y-14823960D02*
X8170991Y-14814436D01*
X8170991Y-14814436D02*
X8161467Y-14795388D01*
X8161467Y-14795388D02*
X8151943Y-14757293D01*
X8151943Y-14757293D02*
X8151943Y-14709674D01*
X8151943Y-14709674D02*
X8161467Y-14671579D01*
X8161467Y-14671579D02*
X8170991Y-14652531D01*
X8170991Y-14652531D02*
X8180515Y-14643008D01*
X8180515Y-14643008D02*
X8199562Y-14633484D01*
X8390039Y-14633484D02*
X8409086Y-14633484D01*
X8409086Y-14633484D02*
X8428134Y-14643008D01*
X8428134Y-14643008D02*
X8437658Y-14652531D01*
X8437658Y-14652531D02*
X8447182Y-14671579D01*
X8447182Y-14671579D02*
X8456705Y-14709674D01*
X8456705Y-14709674D02*
X8456705Y-14757293D01*
X8456705Y-14757293D02*
X8447182Y-14795388D01*
X8447182Y-14795388D02*
X8437658Y-14814436D01*
X8437658Y-14814436D02*
X8428134Y-14823960D01*
X8428134Y-14823960D02*
X8409086Y-14833484D01*
X8409086Y-14833484D02*
X8390039Y-14833484D01*
X8390039Y-14833484D02*
X8370991Y-14823960D01*
X8370991Y-14823960D02*
X8361467Y-14814436D01*
X8361467Y-14814436D02*
X8351943Y-14795388D01*
X8351943Y-14795388D02*
X8342420Y-14757293D01*
X8342420Y-14757293D02*
X8342420Y-14709674D01*
X8342420Y-14709674D02*
X8351943Y-14671579D01*
X8351943Y-14671579D02*
X8361467Y-14652531D01*
X8361467Y-14652531D02*
X8370991Y-14643008D01*
X8370991Y-14643008D02*
X8390039Y-14633484D01*
X8542420Y-14833484D02*
X8542420Y-14700150D01*
X8542420Y-14719198D02*
X8551944Y-14709674D01*
X8551944Y-14709674D02*
X8570991Y-14700150D01*
X8570991Y-14700150D02*
X8599563Y-14700150D01*
X8599563Y-14700150D02*
X8618610Y-14709674D01*
X8618610Y-14709674D02*
X8628134Y-14728722D01*
X8628134Y-14728722D02*
X8628134Y-14833484D01*
X8628134Y-14728722D02*
X8637658Y-14709674D01*
X8637658Y-14709674D02*
X8656705Y-14700150D01*
X8656705Y-14700150D02*
X8685277Y-14700150D01*
X8685277Y-14700150D02*
X8704325Y-14709674D01*
X8704325Y-14709674D02*
X8713848Y-14728722D01*
X8713848Y-14728722D02*
X8713848Y-14833484D01*
X8809086Y-14833484D02*
X8809086Y-14700150D01*
X8809086Y-14719198D02*
X8818610Y-14709674D01*
X8818610Y-14709674D02*
X8837658Y-14700150D01*
X8837658Y-14700150D02*
X8866229Y-14700150D01*
X8866229Y-14700150D02*
X8885277Y-14709674D01*
X8885277Y-14709674D02*
X8894801Y-14728722D01*
X8894801Y-14728722D02*
X8894801Y-14833484D01*
X8894801Y-14728722D02*
X8904325Y-14709674D01*
X8904325Y-14709674D02*
X8923372Y-14700150D01*
X8923372Y-14700150D02*
X8951944Y-14700150D01*
X8951944Y-14700150D02*
X8970991Y-14709674D01*
X8970991Y-14709674D02*
X8980515Y-14728722D01*
X8980515Y-14728722D02*
X8980515Y-14833484D01*
X9370991Y-14623960D02*
X9199563Y-14881103D01*
X9628134Y-14633484D02*
X9647182Y-14633484D01*
X9647182Y-14633484D02*
X9666229Y-14643008D01*
X9666229Y-14643008D02*
X9675753Y-14652531D01*
X9675753Y-14652531D02*
X9685277Y-14671579D01*
X9685277Y-14671579D02*
X9694801Y-14709674D01*
X9694801Y-14709674D02*
X9694801Y-14757293D01*
X9694801Y-14757293D02*
X9685277Y-14795388D01*
X9685277Y-14795388D02*
X9675753Y-14814436D01*
X9675753Y-14814436D02*
X9666229Y-14823960D01*
X9666229Y-14823960D02*
X9647182Y-14833484D01*
X9647182Y-14833484D02*
X9628134Y-14833484D01*
X9628134Y-14833484D02*
X9609087Y-14823960D01*
X9609087Y-14823960D02*
X9599563Y-14814436D01*
X9599563Y-14814436D02*
X9590039Y-14795388D01*
X9590039Y-14795388D02*
X9580515Y-14757293D01*
X9580515Y-14757293D02*
X9580515Y-14709674D01*
X9580515Y-14709674D02*
X9590039Y-14671579D01*
X9590039Y-14671579D02*
X9599563Y-14652531D01*
X9599563Y-14652531D02*
X9609087Y-14643008D01*
X9609087Y-14643008D02*
X9628134Y-14633484D01*
X9780515Y-14814436D02*
X9790039Y-14823960D01*
X9790039Y-14823960D02*
X9780515Y-14833484D01*
X9780515Y-14833484D02*
X9770991Y-14823960D01*
X9770991Y-14823960D02*
X9780515Y-14814436D01*
X9780515Y-14814436D02*
X9780515Y-14833484D01*
X9980515Y-14833484D02*
X9866229Y-14833484D01*
X9923372Y-14833484D02*
X9923372Y-14633484D01*
X9923372Y-14633484D02*
X9904325Y-14662055D01*
X9904325Y-14662055D02*
X9885277Y-14681103D01*
X9885277Y-14681103D02*
X9866229Y-14690627D01*
X10056706Y-14652531D02*
X10066229Y-14643008D01*
X10066229Y-14643008D02*
X10085277Y-14633484D01*
X10085277Y-14633484D02*
X10132896Y-14633484D01*
X10132896Y-14633484D02*
X10151944Y-14643008D01*
X10151944Y-14643008D02*
X10161468Y-14652531D01*
X10161468Y-14652531D02*
X10170991Y-14671579D01*
X10170991Y-14671579D02*
X10170991Y-14690627D01*
X10170991Y-14690627D02*
X10161468Y-14719198D01*
X10161468Y-14719198D02*
X10047182Y-14833484D01*
X10047182Y-14833484D02*
X10170991Y-14833484D01*
X10342420Y-14633484D02*
X10304325Y-14633484D01*
X10304325Y-14633484D02*
X10285277Y-14643008D01*
X10285277Y-14643008D02*
X10275753Y-14652531D01*
X10275753Y-14652531D02*
X10256706Y-14681103D01*
X10256706Y-14681103D02*
X10247182Y-14719198D01*
X10247182Y-14719198D02*
X10247182Y-14795388D01*
X10247182Y-14795388D02*
X10256706Y-14814436D01*
X10256706Y-14814436D02*
X10266229Y-14823960D01*
X10266229Y-14823960D02*
X10285277Y-14833484D01*
X10285277Y-14833484D02*
X10323372Y-14833484D01*
X10323372Y-14833484D02*
X10342420Y-14823960D01*
X10342420Y-14823960D02*
X10351944Y-14814436D01*
X10351944Y-14814436D02*
X10361468Y-14795388D01*
X10361468Y-14795388D02*
X10361468Y-14747769D01*
X10361468Y-14747769D02*
X10351944Y-14728722D01*
X10351944Y-14728722D02*
X10342420Y-14719198D01*
X10342420Y-14719198D02*
X10323372Y-14709674D01*
X10323372Y-14709674D02*
X10285277Y-14709674D01*
X10285277Y-14709674D02*
X10266229Y-14719198D01*
X10266229Y-14719198D02*
X10256706Y-14728722D01*
X10256706Y-14728722D02*
X10247182Y-14747769D01*
X10485277Y-14633484D02*
X10504325Y-14633484D01*
X10504325Y-14633484D02*
X10523372Y-14643008D01*
X10523372Y-14643008D02*
X10532896Y-14652531D01*
X10532896Y-14652531D02*
X10542420Y-14671579D01*
X10542420Y-14671579D02*
X10551944Y-14709674D01*
X10551944Y-14709674D02*
X10551944Y-14757293D01*
X10551944Y-14757293D02*
X10542420Y-14795388D01*
X10542420Y-14795388D02*
X10532896Y-14814436D01*
X10532896Y-14814436D02*
X10523372Y-14823960D01*
X10523372Y-14823960D02*
X10504325Y-14833484D01*
X10504325Y-14833484D02*
X10485277Y-14833484D01*
X10485277Y-14833484D02*
X10466229Y-14823960D01*
X10466229Y-14823960D02*
X10456706Y-14814436D01*
X10456706Y-14814436D02*
X10447182Y-14795388D01*
X10447182Y-14795388D02*
X10437658Y-14757293D01*
X10437658Y-14757293D02*
X10437658Y-14709674D01*
X10437658Y-14709674D02*
X10447182Y-14671579D01*
X10447182Y-14671579D02*
X10456706Y-14652531D01*
X10456706Y-14652531D02*
X10466229Y-14643008D01*
X10466229Y-14643008D02*
X10485277Y-14633484D01*
X10628134Y-14633484D02*
X10628134Y-14671579D01*
X10704325Y-14633484D02*
X10704325Y-14671579D01*
X10999563Y-14909674D02*
X10990039Y-14900150D01*
X10990039Y-14900150D02*
X10970991Y-14871579D01*
X10970991Y-14871579D02*
X10961468Y-14852531D01*
X10961468Y-14852531D02*
X10951944Y-14823960D01*
X10951944Y-14823960D02*
X10942420Y-14776341D01*
X10942420Y-14776341D02*
X10942420Y-14738246D01*
X10942420Y-14738246D02*
X10951944Y-14690627D01*
X10951944Y-14690627D02*
X10961468Y-14662055D01*
X10961468Y-14662055D02*
X10970991Y-14643008D01*
X10970991Y-14643008D02*
X10990039Y-14614436D01*
X10990039Y-14614436D02*
X10999563Y-14604912D01*
X11066230Y-14652531D02*
X11075753Y-14643008D01*
X11075753Y-14643008D02*
X11094801Y-14633484D01*
X11094801Y-14633484D02*
X11142420Y-14633484D01*
X11142420Y-14633484D02*
X11161468Y-14643008D01*
X11161468Y-14643008D02*
X11170991Y-14652531D01*
X11170991Y-14652531D02*
X11180515Y-14671579D01*
X11180515Y-14671579D02*
X11180515Y-14690627D01*
X11180515Y-14690627D02*
X11170991Y-14719198D01*
X11170991Y-14719198D02*
X11056706Y-14833484D01*
X11056706Y-14833484D02*
X11180515Y-14833484D01*
X11418610Y-14833484D02*
X11418610Y-14633484D01*
X11504325Y-14833484D02*
X11504325Y-14728722D01*
X11504325Y-14728722D02*
X11494801Y-14709674D01*
X11494801Y-14709674D02*
X11475753Y-14700150D01*
X11475753Y-14700150D02*
X11447182Y-14700150D01*
X11447182Y-14700150D02*
X11428134Y-14709674D01*
X11428134Y-14709674D02*
X11418610Y-14719198D01*
X11628134Y-14833484D02*
X11609087Y-14823960D01*
X11609087Y-14823960D02*
X11599563Y-14814436D01*
X11599563Y-14814436D02*
X11590039Y-14795388D01*
X11590039Y-14795388D02*
X11590039Y-14738246D01*
X11590039Y-14738246D02*
X11599563Y-14719198D01*
X11599563Y-14719198D02*
X11609087Y-14709674D01*
X11609087Y-14709674D02*
X11628134Y-14700150D01*
X11628134Y-14700150D02*
X11656706Y-14700150D01*
X11656706Y-14700150D02*
X11675753Y-14709674D01*
X11675753Y-14709674D02*
X11685277Y-14719198D01*
X11685277Y-14719198D02*
X11694801Y-14738246D01*
X11694801Y-14738246D02*
X11694801Y-14795388D01*
X11694801Y-14795388D02*
X11685277Y-14814436D01*
X11685277Y-14814436D02*
X11675753Y-14823960D01*
X11675753Y-14823960D02*
X11656706Y-14833484D01*
X11656706Y-14833484D02*
X11628134Y-14833484D01*
X11809087Y-14833484D02*
X11790039Y-14823960D01*
X11790039Y-14823960D02*
X11780515Y-14804912D01*
X11780515Y-14804912D02*
X11780515Y-14633484D01*
X11961468Y-14823960D02*
X11942420Y-14833484D01*
X11942420Y-14833484D02*
X11904325Y-14833484D01*
X11904325Y-14833484D02*
X11885277Y-14823960D01*
X11885277Y-14823960D02*
X11875753Y-14804912D01*
X11875753Y-14804912D02*
X11875753Y-14728722D01*
X11875753Y-14728722D02*
X11885277Y-14709674D01*
X11885277Y-14709674D02*
X11904325Y-14700150D01*
X11904325Y-14700150D02*
X11942420Y-14700150D01*
X11942420Y-14700150D02*
X11961468Y-14709674D01*
X11961468Y-14709674D02*
X11970991Y-14728722D01*
X11970991Y-14728722D02*
X11970991Y-14747769D01*
X11970991Y-14747769D02*
X11875753Y-14766817D01*
X12047182Y-14823960D02*
X12066230Y-14833484D01*
X12066230Y-14833484D02*
X12104325Y-14833484D01*
X12104325Y-14833484D02*
X12123372Y-14823960D01*
X12123372Y-14823960D02*
X12132896Y-14804912D01*
X12132896Y-14804912D02*
X12132896Y-14795388D01*
X12132896Y-14795388D02*
X12123372Y-14776341D01*
X12123372Y-14776341D02*
X12104325Y-14766817D01*
X12104325Y-14766817D02*
X12075753Y-14766817D01*
X12075753Y-14766817D02*
X12056706Y-14757293D01*
X12056706Y-14757293D02*
X12047182Y-14738246D01*
X12047182Y-14738246D02*
X12047182Y-14728722D01*
X12047182Y-14728722D02*
X12056706Y-14709674D01*
X12056706Y-14709674D02*
X12075753Y-14700150D01*
X12075753Y-14700150D02*
X12104325Y-14700150D01*
X12104325Y-14700150D02*
X12123372Y-14709674D01*
X12199563Y-14909674D02*
X12209087Y-14900150D01*
X12209087Y-14900150D02*
X12228134Y-14871579D01*
X12228134Y-14871579D02*
X12237658Y-14852531D01*
X12237658Y-14852531D02*
X12247182Y-14823960D01*
X12247182Y-14823960D02*
X12256706Y-14776341D01*
X12256706Y-14776341D02*
X12256706Y-14738246D01*
X12256706Y-14738246D02*
X12247182Y-14690627D01*
X12247182Y-14690627D02*
X12237658Y-14662055D01*
X12237658Y-14662055D02*
X12228134Y-14643008D01*
X12228134Y-14643008D02*
X12209087Y-14614436D01*
X12209087Y-14614436D02*
X12199563Y-14604912D01*
X12561468Y-14909674D02*
X12551944Y-14900150D01*
X12551944Y-14900150D02*
X12532896Y-14871579D01*
X12532896Y-14871579D02*
X12523372Y-14852531D01*
X12523372Y-14852531D02*
X12513849Y-14823960D01*
X12513849Y-14823960D02*
X12504325Y-14776341D01*
X12504325Y-14776341D02*
X12504325Y-14738246D01*
X12504325Y-14738246D02*
X12513849Y-14690627D01*
X12513849Y-14690627D02*
X12523372Y-14662055D01*
X12523372Y-14662055D02*
X12532896Y-14643008D01*
X12532896Y-14643008D02*
X12551944Y-14614436D01*
X12551944Y-14614436D02*
X12561468Y-14604912D01*
X12637658Y-14700150D02*
X12637658Y-14833484D01*
X12637658Y-14719198D02*
X12647182Y-14709674D01*
X12647182Y-14709674D02*
X12666230Y-14700150D01*
X12666230Y-14700150D02*
X12694801Y-14700150D01*
X12694801Y-14700150D02*
X12713849Y-14709674D01*
X12713849Y-14709674D02*
X12723372Y-14728722D01*
X12723372Y-14728722D02*
X12723372Y-14833484D01*
X12847182Y-14833484D02*
X12828134Y-14823960D01*
X12828134Y-14823960D02*
X12818611Y-14814436D01*
X12818611Y-14814436D02*
X12809087Y-14795388D01*
X12809087Y-14795388D02*
X12809087Y-14738246D01*
X12809087Y-14738246D02*
X12818611Y-14719198D01*
X12818611Y-14719198D02*
X12828134Y-14709674D01*
X12828134Y-14709674D02*
X12847182Y-14700150D01*
X12847182Y-14700150D02*
X12875753Y-14700150D01*
X12875753Y-14700150D02*
X12894801Y-14709674D01*
X12894801Y-14709674D02*
X12904325Y-14719198D01*
X12904325Y-14719198D02*
X12913849Y-14738246D01*
X12913849Y-14738246D02*
X12913849Y-14795388D01*
X12913849Y-14795388D02*
X12904325Y-14814436D01*
X12904325Y-14814436D02*
X12894801Y-14823960D01*
X12894801Y-14823960D02*
X12875753Y-14833484D01*
X12875753Y-14833484D02*
X12847182Y-14833484D01*
X12970992Y-14700150D02*
X13047182Y-14700150D01*
X12999563Y-14633484D02*
X12999563Y-14804912D01*
X12999563Y-14804912D02*
X13009087Y-14823960D01*
X13009087Y-14823960D02*
X13028134Y-14833484D01*
X13028134Y-14833484D02*
X13047182Y-14833484D01*
X13266230Y-14700150D02*
X13266230Y-14900150D01*
X13266230Y-14709674D02*
X13285277Y-14700150D01*
X13285277Y-14700150D02*
X13323373Y-14700150D01*
X13323373Y-14700150D02*
X13342420Y-14709674D01*
X13342420Y-14709674D02*
X13351944Y-14719198D01*
X13351944Y-14719198D02*
X13361468Y-14738246D01*
X13361468Y-14738246D02*
X13361468Y-14795388D01*
X13361468Y-14795388D02*
X13351944Y-14814436D01*
X13351944Y-14814436D02*
X13342420Y-14823960D01*
X13342420Y-14823960D02*
X13323373Y-14833484D01*
X13323373Y-14833484D02*
X13285277Y-14833484D01*
X13285277Y-14833484D02*
X13266230Y-14823960D01*
X13475753Y-14833484D02*
X13456706Y-14823960D01*
X13456706Y-14823960D02*
X13447182Y-14804912D01*
X13447182Y-14804912D02*
X13447182Y-14633484D01*
X13637658Y-14833484D02*
X13637658Y-14728722D01*
X13637658Y-14728722D02*
X13628134Y-14709674D01*
X13628134Y-14709674D02*
X13609087Y-14700150D01*
X13609087Y-14700150D02*
X13570992Y-14700150D01*
X13570992Y-14700150D02*
X13551944Y-14709674D01*
X13637658Y-14823960D02*
X13618611Y-14833484D01*
X13618611Y-14833484D02*
X13570992Y-14833484D01*
X13570992Y-14833484D02*
X13551944Y-14823960D01*
X13551944Y-14823960D02*
X13542420Y-14804912D01*
X13542420Y-14804912D02*
X13542420Y-14785865D01*
X13542420Y-14785865D02*
X13551944Y-14766817D01*
X13551944Y-14766817D02*
X13570992Y-14757293D01*
X13570992Y-14757293D02*
X13618611Y-14757293D01*
X13618611Y-14757293D02*
X13637658Y-14747769D01*
X13704325Y-14700150D02*
X13780515Y-14700150D01*
X13732896Y-14633484D02*
X13732896Y-14804912D01*
X13732896Y-14804912D02*
X13742420Y-14823960D01*
X13742420Y-14823960D02*
X13761468Y-14833484D01*
X13761468Y-14833484D02*
X13780515Y-14833484D01*
X13923373Y-14823960D02*
X13904325Y-14833484D01*
X13904325Y-14833484D02*
X13866230Y-14833484D01*
X13866230Y-14833484D02*
X13847182Y-14823960D01*
X13847182Y-14823960D02*
X13837658Y-14804912D01*
X13837658Y-14804912D02*
X13837658Y-14728722D01*
X13837658Y-14728722D02*
X13847182Y-14709674D01*
X13847182Y-14709674D02*
X13866230Y-14700150D01*
X13866230Y-14700150D02*
X13904325Y-14700150D01*
X13904325Y-14700150D02*
X13923373Y-14709674D01*
X13923373Y-14709674D02*
X13932896Y-14728722D01*
X13932896Y-14728722D02*
X13932896Y-14747769D01*
X13932896Y-14747769D02*
X13837658Y-14766817D01*
X14104325Y-14833484D02*
X14104325Y-14633484D01*
X14104325Y-14823960D02*
X14085277Y-14833484D01*
X14085277Y-14833484D02*
X14047182Y-14833484D01*
X14047182Y-14833484D02*
X14028134Y-14823960D01*
X14028134Y-14823960D02*
X14018611Y-14814436D01*
X14018611Y-14814436D02*
X14009087Y-14795388D01*
X14009087Y-14795388D02*
X14009087Y-14738246D01*
X14009087Y-14738246D02*
X14018611Y-14719198D01*
X14018611Y-14719198D02*
X14028134Y-14709674D01*
X14028134Y-14709674D02*
X14047182Y-14700150D01*
X14047182Y-14700150D02*
X14085277Y-14700150D01*
X14085277Y-14700150D02*
X14104325Y-14709674D01*
X14180515Y-14909674D02*
X14190039Y-14900150D01*
X14190039Y-14900150D02*
X14209087Y-14871579D01*
X14209087Y-14871579D02*
X14218611Y-14852531D01*
X14218611Y-14852531D02*
X14228134Y-14823960D01*
X14228134Y-14823960D02*
X14237658Y-14776341D01*
X14237658Y-14776341D02*
X14237658Y-14738246D01*
X14237658Y-14738246D02*
X14228134Y-14690627D01*
X14228134Y-14690627D02*
X14218611Y-14662055D01*
X14218611Y-14662055D02*
X14209087Y-14643008D01*
X14209087Y-14643008D02*
X14190039Y-14614436D01*
X14190039Y-14614436D02*
X14180515Y-14604912D01*
M02*
